<mxfile host="app.diagrams.net" agent="Mozilla/5.0 (Windows NT 10.0; Win64; x64) AppleWebKit/537.36 (KHTML, like Gecko) Chrome/131.0.0.0 Safari/537.36" version="24.9.3">
  <diagram name="PÃ¡gina-1" id="9RzpRnPlgMhjM78U7mNT">
    <mxGraphModel dx="2876" dy="1103" grid="1" gridSize="10" guides="1" tooltips="1" connect="1" arrows="1" fold="1" page="1" pageScale="1" pageWidth="827" pageHeight="1169" math="0" shadow="0">
      <root>
        <mxCell id="0" />
        <mxCell id="1" parent="0" />
        <mxCell id="UkQbXRUqr05wz5BsYzOK-1" value="eda:dataset" style="rounded=0;whiteSpace=wrap;html=1;" vertex="1" parent="1">
          <mxGeometry x="910" y="210" width="120" height="60" as="geometry" />
        </mxCell>
        <mxCell id="UkQbXRUqr05wz5BsYzOK-2" value="exatrair_arquivos" style="rounded=0;whiteSpace=wrap;html=1;" vertex="1" parent="1">
          <mxGeometry x="200" y="700" width="120" height="60" as="geometry" />
        </mxCell>
        <mxCell id="UkQbXRUqr05wz5BsYzOK-3" value="agrupar df" style="rounded=0;whiteSpace=wrap;html=1;" vertex="1" parent="1">
          <mxGeometry x="180" y="1320" width="120" height="60" as="geometry" />
        </mxCell>
        <mxCell id="UkQbXRUqr05wz5BsYzOK-4" value="sanear df" style="rounded=0;whiteSpace=wrap;html=1;" vertex="1" parent="1">
          <mxGeometry x="180" y="1220" width="120" height="60" as="geometry" />
        </mxCell>
        <mxCell id="UkQbXRUqr05wz5BsYzOK-5" value="" style="rounded=0;whiteSpace=wrap;html=1;" vertex="1" parent="1">
          <mxGeometry x="1080" y="1290" width="120" height="60" as="geometry" />
        </mxCell>
        <mxCell id="UkQbXRUqr05wz5BsYzOK-7" value="zip_amostrs_2023" style="ellipse;whiteSpace=wrap;html=1;" vertex="1" parent="1">
          <mxGeometry x="670" y="550" width="120" height="80" as="geometry" />
        </mxCell>
        <mxCell id="UkQbXRUqr05wz5BsYzOK-8" value="xlsx_reservas" style="ellipse;whiteSpace=wrap;html=1;" vertex="1" parent="1">
          <mxGeometry x="880" y="550" width="120" height="80" as="geometry" />
        </mxCell>
        <mxCell id="UkQbXRUqr05wz5BsYzOK-9" value="csv_poco" style="ellipse;whiteSpace=wrap;html=1;" vertex="1" parent="1">
          <mxGeometry x="1080" y="550" width="120" height="80" as="geometry" />
        </mxCell>
        <mxCell id="UkQbXRUqr05wz5BsYzOK-10" value="URLs" style="ellipse;whiteSpace=wrap;html=1;" vertex="1" parent="1">
          <mxGeometry x="910" y="330" width="120" height="80" as="geometry" />
        </mxCell>
        <mxCell id="UkQbXRUqr05wz5BsYzOK-11" value="Ubirajara" style="whiteSpace=wrap;html=1;shape=mxgraph.basic.pentagon" vertex="1" parent="1">
          <mxGeometry x="40" y="480" width="100" height="90" as="geometry" />
        </mxCell>
        <mxCell id="UkQbXRUqr05wz5BsYzOK-12" value="UFRJ" style="whiteSpace=wrap;html=1;shape=mxgraph.basic.pentagon" vertex="1" parent="1">
          <mxGeometry x="40" y="170" width="100" height="90" as="geometry" />
        </mxCell>
        <mxCell id="UkQbXRUqr05wz5BsYzOK-13" value="PPGI" style="whiteSpace=wrap;html=1;shape=mxgraph.basic.pentagon" vertex="1" parent="1">
          <mxGeometry x="40" y="320" width="100" height="90" as="geometry" />
        </mxCell>
        <mxCell id="UkQbXRUqr05wz5BsYzOK-14" value="ANP" style="whiteSpace=wrap;html=1;shape=mxgraph.basic.pentagon" vertex="1" parent="1">
          <mxGeometry x="920" y="40" width="100" height="90" as="geometry" />
        </mxCell>
        <mxCell id="UkQbXRUqr05wz5BsYzOK-15" value="" style="endArrow=none;html=1;rounded=0;entryX=0.5;entryY=1;entryDx=0;entryDy=0;entryPerimeter=0;" edge="1" parent="1" source="UkQbXRUqr05wz5BsYzOK-1" target="UkQbXRUqr05wz5BsYzOK-14">
          <mxGeometry width="50" height="50" relative="1" as="geometry">
            <mxPoint x="270" y="180" as="sourcePoint" />
            <mxPoint x="440" y="470" as="targetPoint" />
          </mxGeometry>
        </mxCell>
        <mxCell id="UkQbXRUqr05wz5BsYzOK-16" value="" style="endArrow=none;html=1;rounded=0;exitX=0.52;exitY=1.033;exitDx=0;exitDy=0;exitPerimeter=0;" edge="1" parent="1" source="UkQbXRUqr05wz5BsYzOK-12" target="UkQbXRUqr05wz5BsYzOK-13">
          <mxGeometry width="50" height="50" relative="1" as="geometry">
            <mxPoint x="410" y="380" as="sourcePoint" />
            <mxPoint x="460" y="330" as="targetPoint" />
            <Array as="points" />
          </mxGeometry>
        </mxCell>
        <mxCell id="UkQbXRUqr05wz5BsYzOK-17" value="" style="endArrow=none;html=1;rounded=0;entryX=0.5;entryY=0;entryDx=0;entryDy=0;entryPerimeter=0;" edge="1" parent="1" target="UkQbXRUqr05wz5BsYzOK-11">
          <mxGeometry width="50" height="50" relative="1" as="geometry">
            <mxPoint x="90" y="413" as="sourcePoint" />
            <mxPoint x="460" y="330" as="targetPoint" />
          </mxGeometry>
        </mxCell>
        <mxCell id="UkQbXRUqr05wz5BsYzOK-18" value="" style="endArrow=none;html=1;rounded=0;" edge="1" parent="1" source="UkQbXRUqr05wz5BsYzOK-1" target="UkQbXRUqr05wz5BsYzOK-10">
          <mxGeometry width="50" height="50" relative="1" as="geometry">
            <mxPoint x="390" y="570" as="sourcePoint" />
            <mxPoint x="440" y="520" as="targetPoint" />
          </mxGeometry>
        </mxCell>
        <mxCell id="UkQbXRUqr05wz5BsYzOK-19" value="" style="endArrow=none;html=1;rounded=0;entryX=1;entryY=1;entryDx=0;entryDy=0;" edge="1" parent="1" source="UkQbXRUqr05wz5BsYzOK-9" target="UkQbXRUqr05wz5BsYzOK-10">
          <mxGeometry width="50" height="50" relative="1" as="geometry">
            <mxPoint x="740" y="700" as="sourcePoint" />
            <mxPoint x="990" y="420" as="targetPoint" />
          </mxGeometry>
        </mxCell>
        <mxCell id="UkQbXRUqr05wz5BsYzOK-20" value="" style="endArrow=none;html=1;rounded=0;" edge="1" parent="1" source="UkQbXRUqr05wz5BsYzOK-8" target="UkQbXRUqr05wz5BsYzOK-10">
          <mxGeometry width="50" height="50" relative="1" as="geometry">
            <mxPoint x="740" y="700" as="sourcePoint" />
            <mxPoint x="790" y="650" as="targetPoint" />
          </mxGeometry>
        </mxCell>
        <mxCell id="UkQbXRUqr05wz5BsYzOK-21" value="" style="endArrow=none;html=1;rounded=0;entryX=0.408;entryY=0.975;entryDx=0;entryDy=0;entryPerimeter=0;" edge="1" parent="1" source="UkQbXRUqr05wz5BsYzOK-7" target="UkQbXRUqr05wz5BsYzOK-10">
          <mxGeometry width="50" height="50" relative="1" as="geometry">
            <mxPoint x="740" y="700" as="sourcePoint" />
            <mxPoint x="790" y="650" as="targetPoint" />
          </mxGeometry>
        </mxCell>
        <mxCell id="UkQbXRUqr05wz5BsYzOK-22" value="zip_shape" style="ellipse;whiteSpace=wrap;html=1;" vertex="1" parent="1">
          <mxGeometry x="1270" y="550" width="120" height="80" as="geometry" />
        </mxCell>
        <mxCell id="UkQbXRUqr05wz5BsYzOK-23" value="" style="endArrow=none;html=1;rounded=0;exitX=0.408;exitY=-0.012;exitDx=0;exitDy=0;exitPerimeter=0;" edge="1" parent="1" source="UkQbXRUqr05wz5BsYzOK-22" target="UkQbXRUqr05wz5BsYzOK-10">
          <mxGeometry width="50" height="50" relative="1" as="geometry">
            <mxPoint x="740" y="700" as="sourcePoint" />
            <mxPoint x="790" y="650" as="targetPoint" />
          </mxGeometry>
        </mxCell>
        <mxCell id="UkQbXRUqr05wz5BsYzOK-24" value="Serra" style="whiteSpace=wrap;html=1;shape=mxgraph.basic.pentagon" vertex="1" parent="1">
          <mxGeometry x="-90" y="480" width="100" height="90" as="geometry" />
        </mxCell>
        <mxCell id="UkQbXRUqr05wz5BsYzOK-25" value="Zavaleta" style="whiteSpace=wrap;html=1;shape=mxgraph.basic.pentagon" vertex="1" parent="1">
          <mxGeometry x="170" y="480" width="100" height="90" as="geometry" />
        </mxCell>
        <mxCell id="UkQbXRUqr05wz5BsYzOK-26" value="" style="endArrow=none;html=1;rounded=0;entryX=0.19;entryY=1;entryDx=0;entryDy=0;entryPerimeter=0;exitX=0.5;exitY=0;exitDx=0;exitDy=0;exitPerimeter=0;" edge="1" parent="1" source="UkQbXRUqr05wz5BsYzOK-24" target="UkQbXRUqr05wz5BsYzOK-13">
          <mxGeometry width="50" height="50" relative="1" as="geometry">
            <mxPoint x="140" y="670" as="sourcePoint" />
            <mxPoint x="190" y="620" as="targetPoint" />
          </mxGeometry>
        </mxCell>
        <mxCell id="UkQbXRUqr05wz5BsYzOK-27" value="" style="endArrow=none;html=1;rounded=0;entryX=0.81;entryY=1;entryDx=0;entryDy=0;entryPerimeter=0;exitX=0.5;exitY=0;exitDx=0;exitDy=0;exitPerimeter=0;" edge="1" parent="1" source="UkQbXRUqr05wz5BsYzOK-25" target="UkQbXRUqr05wz5BsYzOK-13">
          <mxGeometry width="50" height="50" relative="1" as="geometry">
            <mxPoint x="140" y="670" as="sourcePoint" />
            <mxPoint x="190" y="620" as="targetPoint" />
          </mxGeometry>
        </mxCell>
        <mxCell id="UkQbXRUqr05wz5BsYzOK-28" value="eda_ipymb" style="ellipse;whiteSpace=wrap;html=1;" vertex="1" parent="1">
          <mxGeometry x="440" y="380" width="120" height="80" as="geometry" />
        </mxCell>
        <mxCell id="UkQbXRUqr05wz5BsYzOK-29" value="" style="ellipse;whiteSpace=wrap;html=1;" vertex="1" parent="1">
          <mxGeometry x="1241" y="1060" width="120" height="80" as="geometry" />
        </mxCell>
        <mxCell id="UkQbXRUqr05wz5BsYzOK-30" value="csv:fluido" style="ellipse;whiteSpace=wrap;html=1;" vertex="1" parent="1">
          <mxGeometry x="410" y="840" width="120" height="80" as="geometry" />
        </mxCell>
        <mxCell id="UkQbXRUqr05wz5BsYzOK-31" value="csv:lateral" style="ellipse;whiteSpace=wrap;html=1;" vertex="1" parent="1">
          <mxGeometry x="270" y="840" width="120" height="80" as="geometry" />
        </mxCell>
        <mxCell id="UkQbXRUqr05wz5BsYzOK-32" value="csv:testemunho" style="ellipse;whiteSpace=wrap;html=1;" vertex="1" parent="1">
          <mxGeometry x="130" y="840" width="120" height="80" as="geometry" />
        </mxCell>
        <mxCell id="UkQbXRUqr05wz5BsYzOK-33" value="csv:calha" style="ellipse;whiteSpace=wrap;html=1;" vertex="1" parent="1">
          <mxGeometry x="-6" y="840" width="120" height="80" as="geometry" />
        </mxCell>
        <mxCell id="UkQbXRUqr05wz5BsYzOK-35" value="" style="endArrow=none;html=1;rounded=0;entryX=0.5;entryY=1;entryDx=0;entryDy=0;exitX=0.417;exitY=0;exitDx=0;exitDy=0;exitPerimeter=0;" edge="1" parent="1" source="UkQbXRUqr05wz5BsYzOK-31" target="UkQbXRUqr05wz5BsYzOK-2">
          <mxGeometry width="50" height="50" relative="1" as="geometry">
            <mxPoint x="100" y="800" as="sourcePoint" />
            <mxPoint x="150" y="750" as="targetPoint" />
          </mxGeometry>
        </mxCell>
        <mxCell id="UkQbXRUqr05wz5BsYzOK-36" value="" style="endArrow=none;html=1;rounded=0;entryX=0;entryY=1;entryDx=0;entryDy=0;exitX=0.5;exitY=0;exitDx=0;exitDy=0;" edge="1" parent="1" source="UkQbXRUqr05wz5BsYzOK-33" target="UkQbXRUqr05wz5BsYzOK-2">
          <mxGeometry width="50" height="50" relative="1" as="geometry">
            <mxPoint x="100" y="800" as="sourcePoint" />
            <mxPoint x="150" y="750" as="targetPoint" />
          </mxGeometry>
        </mxCell>
        <mxCell id="UkQbXRUqr05wz5BsYzOK-37" value="" style="endArrow=none;html=1;rounded=0;entryX=0.5;entryY=1;entryDx=0;entryDy=0;exitX=0.5;exitY=0;exitDx=0;exitDy=0;" edge="1" parent="1" source="UkQbXRUqr05wz5BsYzOK-32" target="UkQbXRUqr05wz5BsYzOK-2">
          <mxGeometry width="50" height="50" relative="1" as="geometry">
            <mxPoint x="100" y="800" as="sourcePoint" />
            <mxPoint x="150" y="750" as="targetPoint" />
          </mxGeometry>
        </mxCell>
        <mxCell id="UkQbXRUqr05wz5BsYzOK-38" value="" style="endArrow=none;html=1;rounded=0;entryX=0.35;entryY=0.975;entryDx=0;entryDy=0;entryPerimeter=0;exitX=0.5;exitY=0;exitDx=0;exitDy=0;" edge="1" parent="1" source="UkQbXRUqr05wz5BsYzOK-2" target="UkQbXRUqr05wz5BsYzOK-7">
          <mxGeometry width="50" height="50" relative="1" as="geometry">
            <mxPoint x="520" y="770" as="sourcePoint" />
            <mxPoint x="570" y="720" as="targetPoint" />
          </mxGeometry>
        </mxCell>
        <mxCell id="UkQbXRUqr05wz5BsYzOK-39" value="" style="endArrow=none;html=1;rounded=0;entryX=1;entryY=1;entryDx=0;entryDy=0;exitX=0.442;exitY=0.05;exitDx=0;exitDy=0;exitPerimeter=0;" edge="1" parent="1" source="UkQbXRUqr05wz5BsYzOK-30" target="UkQbXRUqr05wz5BsYzOK-2">
          <mxGeometry width="50" height="50" relative="1" as="geometry">
            <mxPoint x="100" y="800" as="sourcePoint" />
            <mxPoint x="150" y="750" as="targetPoint" />
          </mxGeometry>
        </mxCell>
        <mxCell id="UkQbXRUqr05wz5BsYzOK-40" value="csv:lÃ¢minas" style="ellipse;whiteSpace=wrap;html=1;" vertex="1" parent="1">
          <mxGeometry x="-160" y="840" width="120" height="80" as="geometry" />
        </mxCell>
        <mxCell id="UkQbXRUqr05wz5BsYzOK-41" value="csv:plugues" style="ellipse;whiteSpace=wrap;html=1;" vertex="1" parent="1">
          <mxGeometry x="550" y="840" width="120" height="80" as="geometry" />
        </mxCell>
        <mxCell id="UkQbXRUqr05wz5BsYzOK-42" value="" style="endArrow=none;html=1;rounded=0;entryX=1;entryY=0.75;entryDx=0;entryDy=0;exitX=0.442;exitY=0.063;exitDx=0;exitDy=0;exitPerimeter=0;" edge="1" parent="1" source="UkQbXRUqr05wz5BsYzOK-41" target="UkQbXRUqr05wz5BsYzOK-2">
          <mxGeometry width="50" height="50" relative="1" as="geometry">
            <mxPoint x="100" y="800" as="sourcePoint" />
            <mxPoint x="150" y="750" as="targetPoint" />
          </mxGeometry>
        </mxCell>
        <mxCell id="UkQbXRUqr05wz5BsYzOK-43" value="" style="endArrow=none;html=1;rounded=0;exitX=0.7;exitY=0;exitDx=0;exitDy=0;exitPerimeter=0;entryX=0;entryY=0.5;entryDx=0;entryDy=0;" edge="1" parent="1" source="UkQbXRUqr05wz5BsYzOK-40" target="UkQbXRUqr05wz5BsYzOK-2">
          <mxGeometry width="50" height="50" relative="1" as="geometry">
            <mxPoint x="100" y="800" as="sourcePoint" />
            <mxPoint x="150" y="750" as="targetPoint" />
          </mxGeometry>
        </mxCell>
        <mxCell id="UkQbXRUqr05wz5BsYzOK-44" value="" style="rounded=0;whiteSpace=wrap;html=1;" vertex="1" parent="1">
          <mxGeometry x="560" y="1090" width="120" height="60" as="geometry" />
        </mxCell>
        <mxCell id="UkQbXRUqr05wz5BsYzOK-45" value="" style="rounded=0;whiteSpace=wrap;html=1;" vertex="1" parent="1">
          <mxGeometry x="560" y="1090" width="120" height="60" as="geometry" />
        </mxCell>
        <mxCell id="UkQbXRUqr05wz5BsYzOK-46" value="" style="rounded=0;whiteSpace=wrap;html=1;" vertex="1" parent="1">
          <mxGeometry x="560" y="1090" width="120" height="60" as="geometry" />
        </mxCell>
        <mxCell id="UkQbXRUqr05wz5BsYzOK-47" value="salvar dfs" style="rounded=0;whiteSpace=wrap;html=1;" vertex="1" parent="1">
          <mxGeometry x="180" y="1130" width="120" height="60" as="geometry" />
        </mxCell>
        <mxCell id="UkQbXRUqr05wz5BsYzOK-48" value="ler arquivos" style="rounded=0;whiteSpace=wrap;html=1;" vertex="1" parent="1">
          <mxGeometry x="180" y="1010" width="120" height="60" as="geometry" />
        </mxCell>
        <mxCell id="UkQbXRUqr05wz5BsYzOK-49" value="" style="endArrow=none;html=1;rounded=0;" edge="1" parent="1">
          <mxGeometry width="50" height="50" relative="1" as="geometry">
            <mxPoint x="696" y="1240" as="sourcePoint" />
            <mxPoint x="746" y="1190" as="targetPoint" />
          </mxGeometry>
        </mxCell>
        <mxCell id="UkQbXRUqr05wz5BsYzOK-50" value="" style="endArrow=none;html=1;rounded=0;" edge="1" parent="1">
          <mxGeometry width="50" height="50" relative="1" as="geometry">
            <mxPoint x="696" y="1240" as="sourcePoint" />
            <mxPoint x="746" y="1190" as="targetPoint" />
          </mxGeometry>
        </mxCell>
        <mxCell id="UkQbXRUqr05wz5BsYzOK-51" value="" style="endArrow=none;html=1;rounded=0;exitX=0.5;exitY=1;exitDx=0;exitDy=0;" edge="1" parent="1" source="UkQbXRUqr05wz5BsYzOK-4" target="UkQbXRUqr05wz5BsYzOK-3">
          <mxGeometry width="50" height="50" relative="1" as="geometry">
            <mxPoint x="696" y="1240" as="sourcePoint" />
            <mxPoint x="746" y="1190" as="targetPoint" />
          </mxGeometry>
        </mxCell>
        <mxCell id="UkQbXRUqr05wz5BsYzOK-52" value="" style="endArrow=none;html=1;rounded=0;" edge="1" parent="1" source="UkQbXRUqr05wz5BsYzOK-4" target="UkQbXRUqr05wz5BsYzOK-47">
          <mxGeometry width="50" height="50" relative="1" as="geometry">
            <mxPoint x="696" y="1240" as="sourcePoint" />
            <mxPoint x="746" y="1190" as="targetPoint" />
          </mxGeometry>
        </mxCell>
        <mxCell id="UkQbXRUqr05wz5BsYzOK-53" value="" style="endArrow=none;html=1;rounded=0;entryX=0.5;entryY=1;entryDx=0;entryDy=0;exitX=0.5;exitY=0;exitDx=0;exitDy=0;" edge="1" parent="1" source="UkQbXRUqr05wz5BsYzOK-47" target="UkQbXRUqr05wz5BsYzOK-48">
          <mxGeometry width="50" height="50" relative="1" as="geometry">
            <mxPoint x="696" y="1240" as="sourcePoint" />
            <mxPoint x="746" y="1190" as="targetPoint" />
          </mxGeometry>
        </mxCell>
        <mxCell id="UkQbXRUqr05wz5BsYzOK-54" value="" style="endArrow=none;html=1;rounded=0;entryX=0;entryY=1;entryDx=0;entryDy=0;" edge="1" parent="1" source="UkQbXRUqr05wz5BsYzOK-48" target="UkQbXRUqr05wz5BsYzOK-69">
          <mxGeometry width="50" height="50" relative="1" as="geometry">
            <mxPoint x="696" y="1240" as="sourcePoint" />
            <mxPoint x="746" y="1190" as="targetPoint" />
          </mxGeometry>
        </mxCell>
        <mxCell id="UkQbXRUqr05wz5BsYzOK-55" value="" style="endArrow=none;html=1;rounded=0;exitX=1;exitY=0.75;exitDx=0;exitDy=0;" edge="1" parent="1" source="UkQbXRUqr05wz5BsYzOK-48" target="UkQbXRUqr05wz5BsYzOK-70">
          <mxGeometry width="50" height="50" relative="1" as="geometry">
            <mxPoint x="696" y="1240" as="sourcePoint" />
            <mxPoint x="746" y="1190" as="targetPoint" />
          </mxGeometry>
        </mxCell>
        <mxCell id="UkQbXRUqr05wz5BsYzOK-56" value="" style="endArrow=none;html=1;rounded=0;entryX=0.75;entryY=1;entryDx=0;entryDy=0;" edge="1" parent="1" source="UkQbXRUqr05wz5BsYzOK-69" target="UkQbXRUqr05wz5BsYzOK-68">
          <mxGeometry width="50" height="50" relative="1" as="geometry">
            <mxPoint x="696" y="1240" as="sourcePoint" />
            <mxPoint x="746" y="1190" as="targetPoint" />
          </mxGeometry>
        </mxCell>
        <mxCell id="UkQbXRUqr05wz5BsYzOK-57" value="" style="endArrow=none;html=1;rounded=0;entryX=0.25;entryY=1;entryDx=0;entryDy=0;exitX=0.5;exitY=0;exitDx=0;exitDy=0;" edge="1" parent="1" source="UkQbXRUqr05wz5BsYzOK-70" target="UkQbXRUqr05wz5BsYzOK-68">
          <mxGeometry width="50" height="50" relative="1" as="geometry">
            <mxPoint x="696" y="1240" as="sourcePoint" />
            <mxPoint x="746" y="1190" as="targetPoint" />
          </mxGeometry>
        </mxCell>
        <mxCell id="UkQbXRUqr05wz5BsYzOK-58" value="" style="endArrow=none;html=1;rounded=0;" edge="1" parent="1" source="UkQbXRUqr05wz5BsYzOK-68" target="UkQbXRUqr05wz5BsYzOK-22">
          <mxGeometry width="50" height="50" relative="1" as="geometry">
            <mxPoint x="696" y="1240" as="sourcePoint" />
            <mxPoint x="746" y="1190" as="targetPoint" />
          </mxGeometry>
        </mxCell>
        <mxCell id="UkQbXRUqr05wz5BsYzOK-59" value="" style="endArrow=none;html=1;rounded=0;entryX=0.167;entryY=0.938;entryDx=0;entryDy=0;entryPerimeter=0;exitX=1;exitY=0.5;exitDx=0;exitDy=0;" edge="1" parent="1" source="UkQbXRUqr05wz5BsYzOK-48" target="UkQbXRUqr05wz5BsYzOK-9">
          <mxGeometry width="50" height="50" relative="1" as="geometry">
            <mxPoint x="130" y="1140" as="sourcePoint" />
            <mxPoint x="180" y="1090" as="targetPoint" />
            <Array as="points">
              <mxPoint x="730" y="950" />
            </Array>
          </mxGeometry>
        </mxCell>
        <mxCell id="UkQbXRUqr05wz5BsYzOK-60" value="" style="endArrow=none;html=1;rounded=0;entryX=0.5;entryY=1;entryDx=0;entryDy=0;exitX=1;exitY=0.5;exitDx=0;exitDy=0;" edge="1" parent="1" source="UkQbXRUqr05wz5BsYzOK-48" target="UkQbXRUqr05wz5BsYzOK-8">
          <mxGeometry width="50" height="50" relative="1" as="geometry">
            <mxPoint x="130" y="1140" as="sourcePoint" />
            <mxPoint x="180" y="1090" as="targetPoint" />
            <Array as="points">
              <mxPoint x="700" y="910" />
            </Array>
          </mxGeometry>
        </mxCell>
        <mxCell id="UkQbXRUqr05wz5BsYzOK-61" value="" style="endArrow=none;html=1;rounded=0;exitX=1;exitY=0.167;exitDx=0;exitDy=0;exitPerimeter=0;" edge="1" parent="1" source="UkQbXRUqr05wz5BsYzOK-48" target="UkQbXRUqr05wz5BsYzOK-41">
          <mxGeometry width="50" height="50" relative="1" as="geometry">
            <mxPoint x="40" y="1120" as="sourcePoint" />
            <mxPoint x="90" y="1070" as="targetPoint" />
          </mxGeometry>
        </mxCell>
        <mxCell id="UkQbXRUqr05wz5BsYzOK-62" value="" style="endArrow=none;html=1;rounded=0;entryX=0;entryY=1;entryDx=0;entryDy=0;" edge="1" parent="1" target="UkQbXRUqr05wz5BsYzOK-30">
          <mxGeometry width="50" height="50" relative="1" as="geometry">
            <mxPoint x="270" y="1010" as="sourcePoint" />
            <mxPoint x="90" y="1070" as="targetPoint" />
          </mxGeometry>
        </mxCell>
        <mxCell id="UkQbXRUqr05wz5BsYzOK-63" value="" style="endArrow=none;html=1;rounded=0;entryX=0.592;entryY=-0.017;entryDx=0;entryDy=0;entryPerimeter=0;" edge="1" parent="1" source="UkQbXRUqr05wz5BsYzOK-31" target="UkQbXRUqr05wz5BsYzOK-48">
          <mxGeometry width="50" height="50" relative="1" as="geometry">
            <mxPoint x="40" y="1120" as="sourcePoint" />
            <mxPoint x="250" y="1020" as="targetPoint" />
          </mxGeometry>
        </mxCell>
        <mxCell id="UkQbXRUqr05wz5BsYzOK-64" value="" style="endArrow=none;html=1;rounded=0;exitX=0.4;exitY=0.017;exitDx=0;exitDy=0;exitPerimeter=0;" edge="1" parent="1" source="UkQbXRUqr05wz5BsYzOK-48" target="UkQbXRUqr05wz5BsYzOK-32">
          <mxGeometry width="50" height="50" relative="1" as="geometry">
            <mxPoint x="40" y="1120" as="sourcePoint" />
            <mxPoint x="90" y="1070" as="targetPoint" />
          </mxGeometry>
        </mxCell>
        <mxCell id="UkQbXRUqr05wz5BsYzOK-65" value="" style="endArrow=none;html=1;rounded=0;entryX=0.725;entryY=0.95;entryDx=0;entryDy=0;entryPerimeter=0;" edge="1" parent="1" target="UkQbXRUqr05wz5BsYzOK-33">
          <mxGeometry width="50" height="50" relative="1" as="geometry">
            <mxPoint x="210" y="1010" as="sourcePoint" />
            <mxPoint x="90" y="1070" as="targetPoint" />
          </mxGeometry>
        </mxCell>
        <mxCell id="UkQbXRUqr05wz5BsYzOK-66" value="" style="endArrow=none;html=1;rounded=0;exitX=0.25;exitY=0;exitDx=0;exitDy=0;" edge="1" parent="1" source="UkQbXRUqr05wz5BsYzOK-48" target="UkQbXRUqr05wz5BsYzOK-40">
          <mxGeometry width="50" height="50" relative="1" as="geometry">
            <mxPoint x="40" y="1120" as="sourcePoint" />
            <mxPoint x="90" y="1070" as="targetPoint" />
          </mxGeometry>
        </mxCell>
        <mxCell id="UkQbXRUqr05wz5BsYzOK-68" value="exatrair_arquivos" style="rounded=0;whiteSpace=wrap;html=1;" vertex="1" parent="1">
          <mxGeometry x="1270" y="680" width="120" height="60" as="geometry" />
        </mxCell>
        <mxCell id="UkQbXRUqr05wz5BsYzOK-69" value="SHP:campo" style="ellipse;whiteSpace=wrap;html=1;" vertex="1" parent="1">
          <mxGeometry x="1340" y="810" width="120" height="80" as="geometry" />
        </mxCell>
        <mxCell id="UkQbXRUqr05wz5BsYzOK-70" value="SHP:blocos" style="ellipse;whiteSpace=wrap;html=1;" vertex="1" parent="1">
          <mxGeometry x="1200" y="810" width="120" height="80" as="geometry" />
        </mxCell>
      </root>
    </mxGraphModel>
  </diagram>
</mxfile>
